ffmpeg started on 2016-11-29 at 22:42:55
Report written to "Output/x264/results/ffmpeg/old_town_cross_2160p50veryfast13000k.log"
Command line:
Tools/ffmpeg/ffmpeg -benchmark -y -i Input/y4m/old_town_cross_2160p50.y4m -c:v libx264 -preset veryfast -b:v 13000k -an Output/x264/encoded/old_town_cross_2160p50veryfast13000k.mkv
ffmpeg version N-82227-gdb23fde Copyright (c) 2000-2016 the FFmpeg developers
  built with gcc 5.4.0 (Ubuntu 5.4.0-6ubuntu1~16.04.2) 20160609
  configuration: --prefix=/home/jaroslav/ffmpeg_build --pkg-config-flags=--static --extra-cflags=-I/home/jaroslav/ffmpeg_build/include --extra-ldflags=-L/home/jaroslav/ffmpeg_build/lib --bindir=/home/jaroslav/bin --enable-gpl --enable-libass --enable-libfdk-aac --enable-libfreetype --enable-libmp3lame --enable-libopus --enable-libtheora --enable-libvorbis --enable-libvpx --enable-libx264 --enable-libx265 --enable-nvenc --enable-libmfx --enable-libxvid --enable-libgsm --enable-libopencore-amrnb --enable-version3 --enable-nonfree
  libavutil      55. 35.100 / 55. 35.100
  libavcodec     57. 66.101 / 57. 66.101
  libavformat    57. 57.100 / 57. 57.100
  libavdevice    57.  2.100 / 57.  2.100
  libavfilter     6. 66.100 /  6. 66.100
  libswscale      4.  3.100 /  4.  3.100
  libswresample   2.  4.100 /  2.  4.100
  libpostproc    54.  2.100 / 54.  2.100
Input #0, yuv4mpegpipe, from 'Input/y4m/old_town_cross_2160p50.y4m':
  Duration: 00:00:10.00, start: 0.000000, bitrate: 4976642 kb/s
    Stream #0:0: Video: rawvideo (I420 / 0x30323449), yuv420p(progressive), 3840x2160, SAR 1:1 DAR 16:9, 50 fps, 50 tbr, 50 tbn, 50 tbc
[libx264 @ 0x3807120] using SAR=1/1
[libx264 @ 0x3807120] using cpu capabilities: MMX2 SSE2Fast SSSE3 SSE4.2 AVX FMA3 AVX2 LZCNT BMI2
[libx264 @ 0x3807120] profile High, level 5.2
[libx264 @ 0x3807120] 264 - core 148 - H.264/MPEG-4 AVC codec - Copyleft 2003-2016 - http://www.videolan.org/x264.html - options: cabac=1 ref=1 deblock=1:0:0 analyse=0x3:0x113 me=hex subme=2 psy=1 psy_rd=1.00:0.00 mixed_ref=0 me_range=16 chroma_me=1 trellis=0 8x8dct=1 cqm=0 deadzone=21,11 fast_pskip=1 chroma_qp_offset=0 threads=6 lookahead_threads=2 sliced_threads=0 nr=0 decimate=1 interlaced=0 bluray_compat=0 constrained_intra=0 bframes=3 b_pyramid=2 b_adapt=1 b_bias=0 direct=1 weightb=1 open_gop=0 weightp=1 keyint=250 keyint_min=25 scenecut=40 intra_refresh=0 rc_lookahead=10 rc=abr mbtree=1 bitrate=13000 ratetol=1.0 qcomp=0.60 qpmin=0 qpmax=69 qpstep=4 ip_ratio=1.40 aq=1:1.00
Output #0, matroska, to 'Output/x264/encoded/old_town_cross_2160p50veryfast13000k.mkv':
  Metadata:
    encoder         : Lavf57.57.100
    Stream #0:0: Video: h264 (libx264) (H264 / 0x34363248), yuv420p, 3840x2160 [SAR 1:1 DAR 16:9], q=-1--1, 13000 kb/s, 50 fps, 1k tbn, 50 tbc
    Metadata:
      encoder         : Lavc57.66.101 libx264
    Side data:
      cpb: bitrate max/min/avg: 0/0/13000000 buffer size: 0 vbv_delay: -1
Stream mapping:
  Stream #0:0 -> #0:0 (rawvideo (native) -> h264 (libx264))
Press [q] to stop, [?] for help
frame=   22 fps=0.0 q=31.0 size=       1kB time=-00:00:00.01 bitrate=N/A speed=N/A    frame=   37 fps= 33 q=41.0 size=       1kB time=00:00:00.28 bitrate=  20.9kbits/s speed=0.252x    frame=   51 fps= 31 q=37.0 size=       1kB time=00:00:00.56 bitrate=  10.5kbits/s speed=0.346x    frame=   66 fps= 30 q=34.0 size=       1kB time=00:00:00.86 bitrate=   6.8kbits/s speed=0.397x    frame=   82 fps= 30 q=33.0 size=       1kB time=00:00:01.18 bitrate=   5.0kbits/s speed=0.434x    frame=   98 fps= 30 q=33.0 size=       1kB time=00:00:01.50 bitrate=   3.9kbits/s speed=0.453x    frame=  114 fps= 30 q=32.0 size=       1kB time=00:00:01.82 bitrate=   3.2kbits/s speed=0.472x    frame=  129 fps= 30 q=32.0 size=       1kB time=00:00:02.12 bitrate=   2.8kbits/s speed=0.485x    frame=  145 fps= 30 q=32.0 size=       1kB time=00:00:02.44 bitrate=   2.4kbits/s speed=0.501x    frame=  158 fps= 29 q=32.0 size=       1kB time=00:00:02.70 bitrate=   2.2kbits/s speed=0.497x    frame=  174 fps= 29 q=32.0 size=       1kB time=00:00:03.02 bitrate=   1.9kbits/s speed=0.504x    frame=  188 fps= 29 q=32.0 size=    5187kB time=00:00:03.30 bitrate=12872.5kbits/s speed=0.507x    frame=  204 fps= 29 q=32.0 size=    5187kB time=00:00:03.62 bitrate=11734.9kbits/s speed=0.513x    frame=  220 fps= 29 q=32.0 size=    5187kB time=00:00:03.94 bitrate=10782.0kbits/s speed=0.519x    frame=  232 fps= 28 q=32.0 size=    5187kB time=00:00:04.18 bitrate=10163.1kbits/s speed=0.513x    frame=  239 fps= 28 q=33.0 size=    5187kB time=00:00:04.32 bitrate=9833.8kbits/s speed=0.497x    frame=  247 fps= 27 q=33.0 size=    5187kB time=00:00:04.48 bitrate=9482.7kbits/s speed=0.487x    frame=  255 fps= 26 q=33.0 size=    5187kB time=00:00:04.64 bitrate=9155.8kbits/s speed=0.478x    frame=  263 fps= 26 q=33.0 size=    5187kB time=00:00:04.80 bitrate=8850.6kbits/s speed=0.47x    frame=  277 fps= 26 q=34.0 size=    8168kB time=00:00:05.08 bitrate=13168.8kbits/s speed=0.474x    frame=  291 fps= 26 q=33.0 size=    8168kB time=00:00:05.36 bitrate=12481.0kbits/s speed=0.477x    frame=  307 fps= 26 q=33.0 size=    8168kB time=00:00:05.68 bitrate=11778.0kbits/s speed=0.481x    frame=  323 fps= 26 q=33.0 size=    8168kB time=00:00:06.00 bitrate=11149.9kbits/s speed=0.484x    frame=  339 fps= 26 q=33.0 size=    8168kB time=00:00:06.32 bitrate=10585.4kbits/s speed=0.488x    frame=  355 fps= 26 q=32.0 size=    8168kB time=00:00:06.64 bitrate=10075.4kbits/s speed=0.492x    frame=  371 fps= 26 q=32.0 size=    8168kB time=00:00:06.96 bitrate=9612.2kbits/s speed=0.494x    frame=  387 fps= 26 q=32.0 size=    8168kB time=00:00:07.28 bitrate=9189.8kbits/s speed=0.496x    frame=  403 fps= 26 q=32.0 size=    8168kB time=00:00:07.60 bitrate=8802.9kbits/s speed=0.499x    frame=  417 fps= 26 q=32.0 size=    8168kB time=00:00:07.88 bitrate=8490.1kbits/s speed= 0.5x    frame=  434 fps= 27 q=32.0 size=    8168kB time=00:00:08.22 bitrate=8139.0kbits/s speed=0.505x    frame=  448 fps= 27 q=32.0 size=   13355kB time=00:00:08.50 bitrate=12869.6kbits/s speed=0.506x    frame=  463 fps= 27 q=32.0 size=   13355kB time=00:00:08.80 bitrate=12430.9kbits/s speed=0.507x    frame=  474 fps= 26 q=32.0 size=   13355kB time=00:00:09.02 bitrate=12127.8kbits/s speed=0.503x    frame=  481 fps= 26 q=33.0 size=   13355kB time=00:00:09.16 bitrate=11942.4kbits/s speed=0.497x    frame=  489 fps= 26 q=33.0 size=   13355kB time=00:00:09.32 bitrate=11737.4kbits/s speed=0.492x    frame=  497 fps= 26 q=33.0 size=   13355kB time=00:00:09.48 bitrate=11539.4kbits/s speed=0.487x    frame=  500 fps= 25 q=-1.0 Lsize=   16606kB time=00:00:09.94 bitrate=13684.1kbits/s speed=0.489x    
video:16601kB audio:0kB subtitle:0kB other streams:0kB global headers:0kB muxing overhead: 0.027518%
bench: utime=70.292s
bench: maxrss=1090116kB
[libx264 @ 0x3807120] frame I:3     Avg QP:28.34  size:570518
[libx264 @ 0x3807120] frame P:183   Avg QP:31.14  size: 56892
[libx264 @ 0x3807120] frame B:314   Avg QP:32.50  size: 15529
[libx264 @ 0x3807120] consecutive B-frames: 16.0%  0.8%  0.0% 83.2%
[libx264 @ 0x3807120] mb I  I16..4: 25.5% 55.6% 18.9%
[libx264 @ 0x3807120] mb P  I16..4:  4.5%  2.9%  0.0%  P16..4: 25.6%  6.8%  1.8%  0.0%  0.0%    skip:58.5%
[libx264 @ 0x3807120] mb B  I16..4:  1.2%  0.6%  0.0%  B16..8:  9.3%  1.0%  0.0%  direct: 4.9%  skip:83.1%  L0:38.2% L1:57.2% BI: 4.5%
[libx264 @ 0x3807120] final ratefactor: 24.92
[libx264 @ 0x3807120] 8x8 transform intra:39.4% inter:43.3%
[libx264 @ 0x3807120] coded y,uvDC,uvAC intra: 59.3% 46.0% 30.0% inter: 3.8% 3.3% 0.0%
[libx264 @ 0x3807120] i16 v,h,dc,p: 27% 24% 40%  9%
[libx264 @ 0x3807120] i8 v,h,dc,ddl,ddr,vr,hd,vl,hu:  8% 11% 60%  3%  3%  3%  4%  3%  4%
[libx264 @ 0x3807120] i4 v,h,dc,ddl,ddr,vr,hd,vl,hu: 16% 25% 11%  7%  7%  7% 11%  6% 10%
[libx264 @ 0x3807120] i8c dc,h,v,p: 73% 13% 13%  1%
[libx264 @ 0x3807120] Weighted P-Frames: Y:0.5% UV:0.0%
[libx264 @ 0x3807120] kb/s:13599.04
